<svg xmlns="http://www.w3.org/2000/svg" width="512" height="512" viewBox="0 0 512 512">
  <defs>
    <style>
      .cls-1 {
        fill: #fff;
      }

      .cls-2 {
        fill: #24223c;
      }

      .cls-2, .cls-3 {
        fill-rule: evenodd;
      }

      .cls-3 {
        fill: #b73aff;
      }
    </style>
  </defs>
  <rect id="圆角矩形_1_拷贝_2" data-name="圆角矩形 1 拷贝 2" class="cls-1" width="512" height="512" rx="28" ry="28"/>
  <path id="矩形_7_拷贝_14" data-name="矩形 7 拷贝 14" class="cls-2" d="M254.094,397.7v0.022H103.656V348.281H155.44a123.005,123.005,0,0,1-23.952-60.87H181.3a74.014,74.014,0,0,0,72.342,60.87h0.453v0.01a74.117,74.117,0,0,0,51.092-127.658,151.237,151.237,0,0,0,44.327-24.652,123.139,123.139,0,0,1,27.857,78.2C377.37,342.392,322.179,397.688,254.094,397.7Z"/>
  <path id="矩形_7_拷贝_14-2" data-name="矩形 7 拷贝 14" class="cls-3" d="M254.722,200.016v0.07c-0.216,0-.429-0.02-0.646-0.02A74.024,74.024,0,0,0,181.3,260.947H131.488A123.388,123.388,0,0,1,254.076,150.665h0.215a74.018,74.018,0,0,0,69.641-49.617h50.992A123.362,123.362,0,0,1,254.722,200.016Z"/>
</svg>
